<?xml version="1.0" encoding="UTF-8"?>
<!DOCTYPE svg PUBLIC "-//W3C//DTD SVG 1.1//EN" "http://www.w3.org/Graphics/SVG/1.1/DTD/svg11.dtd">
<!-- Creator: CorelDRAW 2017 -->
<svg xmlns="http://www.w3.org/2000/svg" xml:space="preserve" width="2062px" height="2103px" version="1.1" style="shape-rendering:geometricPrecision; text-rendering:geometricPrecision; image-rendering:optimizeQuality; fill-rule:evenodd; clip-rule:evenodd"
viewBox="0 0 165592 168858"
 xmlns:xlink="http://www.w3.org/1999/xlink">
 <defs>
  <style type="text/css">
   <![CDATA[
    .fil1 {fill:black;fill-rule:nonzero}
    .fil0 {fill:yellow;fill-rule:nonzero}
   ]]>
  </style>
 </defs>
 <g id="Layer_x0020_1">
  <metadata id="CorelCorpID_0Corel-Layer"/>
  <g id="_2059649044416">
   <path class="fil0" d="M143684 0l-120944 0 -10119 0 -12621 0 0 12616 0 23243 0 104907c0,7921 1790,15851 5903,22625 719,1195 1552,2041 2551,2265 4438,1010 11024,-10644 15612,-10140 4500,506 8375,13342 12996,13342 4624,0 8499,-12836 12999,-13342 4588,-504 11199,11150 15612,10140 4490,-1008 5409,-14382 9682,-15896 4342,-1515 13391,8374 17495,6387 4122,-1988 2028,-15235 5894,-17662 3860,-2430 14902,5188 18462,2334 3588,-2856 -1413,-15299 1816,-18530 3236,-3236 15681,1750 18530,-1815 2861,-3579 -4761,-14603 -2314,-18483 2430,-3849 15663,-1752 17646,-5883 1990,-4102 -7901,-13153 -6367,-17491 1499,-4288 14866,-5203 15874,-9682 1018,-4433 -10639,-11024 -10140,-15612 509,-4495 13341,-8377 13341,-12996 0,-4621 -12832,-8501 -13341,-12996 -499,-4590 11158,-11197 10140,-15612 -1008,-4495 -14375,-5410 -15891,-9685l-9 -18c-378,-1108 -1641,-2016 -2807,-2016l0 0z"/>
   <path class="fil1" d="M50331 124949l5195 -5354 -12441 -12072c-686,-666 -4191,-3786 -4983,-4486l175 -180c4550,1748 4695,1817 6305,2256l19716 5444 4632 -4775 -26542 -25759 -5192 5352 9871 9581c1013,983 1230,1192 3142,2840l2816 2452 -173 180c-286,-67 -1614,-653 -1936,-756 -789,-273 -1864,-612 -2688,-850l-19034 -5201 -5405 5567 26542 25761 0 0zm25057 -25820l18111 -18659 -4955 -4808 -12423 12800 -6258 -6071 7968 -8208 -4846 -4704 -8036 8281 -5641 -5474 11685 -12043 -4845 -4701 -17302 17828 26542 25759zm-5030 -47927l32790 19323 5090 -5243 -10000 -15674c-546,-882 -3318,-4975 -3938,-5928l140 -144c1046,733 3529,2370 5901,3760l16145 9487 5088 -5243 -20436 -32053 -5054 5208 9991 15174c73,72 2916,4375 4082,5997l-140 144c-289,-138 -6329,-3824 -6547,-3964l-15248 -9250 -4843 4990 9705 15035c328,460 1716,2789 2080,3284 329,529 1821,2681 2077,3070l-211 215 -3058 -2056c-469,-314 -2734,-1670 -3274,-1981l-15214 -9432 -5126 5281z"/>
  </g>
 </g>
</svg>
