<?xml version="1.0" encoding="UTF-8"?>
<!DOCTYPE svg PUBLIC "-//W3C//DTD SVG 1.1//EN" "http://www.w3.org/Graphics/SVG/1.1/DTD/svg11.dtd">
<!-- Creator: CorelDRAW 2017 -->
<svg xmlns="http://www.w3.org/2000/svg" xml:space="preserve" width="3300px" height="1073px" version="1.1" style="shape-rendering:geometricPrecision; text-rendering:geometricPrecision; image-rendering:optimizeQuality; fill-rule:evenodd; clip-rule:evenodd"
viewBox="0 0 340675 110764"
 xmlns:xlink="http://www.w3.org/1999/xlink">
 <defs>
  <style type="text/css">
   <![CDATA[
    .fil0 {fill:red;fill-rule:nonzero}
    .fil1 {fill:white;fill-rule:nonzero}
   ]]>
  </style>
 </defs>
 <g id="Layer_x0020_1">
  <metadata id="CorelCorpID_0Corel-Layer"/>
  <g id="_2059650612304">
   <path class="fil0" d="M324455 94547l0 0c21626,-21635 21626,-56695 0,-78321l0 0c-10388,-10387 -24475,-16226 -39160,-16226l-273767 0 -11528 0 0 11537 0 4243 0 94984 285295 0c14685,0 28772,-5829 39160,-16217l0 0z"/>
   <path class="fil1" d="M72510 39235c6297,0 7072,0 8753,654 1430,579 3177,1551 3177,6156 0,4877 -2980,6306 -3821,6624 -1233,523 -3111,523 -8109,523l0 -13957zm-10500 39758l10500 0 0 -17814 5708 -196c3699,-131 7455,-327 10892,-2401 2140,-1299 6231,-4811 6231,-12210 0,-4736 -1364,-8566 -4344,-11219 -2531,-2270 -6296,-3765 -13293,-3765l-15694 0 0 47605zm52977 -40216c5838,0 7137,0 8753,589 2074,775 3120,2401 3120,5708 0,2597 -262,5184 -3568,6352 -1495,523 -2401,523 -8305,523l0 -13172 0 0zm0 20758l3503 0 9015 19458 11350 0 -10379 -21149c6679,-2009 9080,-6614 9080,-12639 0,-12780 -9790,-13817 -17506,-13817l-15377 0 0 47605 10314 0 0 -19458 0 0zm40664 -12967c0,-1887 0,-7333 5773,-7333 5512,0 5512,4017 5512,7333l0 16535c0,3307 0,8557 -5642,8557 -4671,0 -5643,-3568 -5643,-8557l0 -16535zm-10640 14396c0,2074 196,6221 1233,9594 2401,8043 10052,9724 14723,9724 3045,0 8753,-448 12714,-4726 2980,-3242 4082,-7530 4082,-14209l0 -11537c0,-7660 -1495,-11873 -4148,-14723 -3176,-3437 -7650,-4605 -12518,-4605 -4474,0 -8949,1233 -11929,4540 -3307,3634 -4157,8295 -4157,13163l0 12779 0 0zm44364 18029l9014 0 0 -25297c0,-2008 -392,-11668 -457,-13872l327 0 10117 39169 7193 0 9855 -39169 262 0c-196,4540 -449,10173 -449,13545l0 25624 9137 0 0 -47605 -14069 0 -5577 19655c-1168,4213 -1878,7193 -2597,11154l-318 0c-196,-850 -1167,-4998 -1429,-5969 -523,-2140 -775,-2859 -1364,-4998l-5642 -19842 -14003 0 0 47605zm67176 -32425c0,-1887 0,-7333 5773,-7333 5511,0 5511,4017 5511,7333l0 16535c0,3307 0,8557 -5642,8557 -4662,0 -5642,-3568 -5642,-8557l0 -16535zm-10631 14396c0,2074 196,6221 1233,9594 2401,8043 10052,9724 14722,9724 3046,0 8754,-448 12705,-4726 2989,-3242 4092,-7530 4092,-14209l0 -11537c0,-7660 -1495,-11873 -4157,-14723 -3176,-3437 -7651,-4605 -12509,-4605 -4474,0 -8949,1233 -11938,4540 -3307,3634 -4148,8295 -4148,13163l0 12779 0 0z"/>
  </g>
 </g>
</svg>
