<?xml version="1.0" encoding="UTF-8"?>
<!DOCTYPE svg PUBLIC "-//W3C//DTD SVG 1.1//EN" "http://www.w3.org/Graphics/SVG/1.1/DTD/svg11.dtd">
<!-- Creator: CorelDRAW 2017 -->
<svg xmlns="http://www.w3.org/2000/svg" xml:space="preserve" width="1056px" height="413px" version="1.1" style="shape-rendering:geometricPrecision; text-rendering:geometricPrecision; image-rendering:optimizeQuality; fill-rule:evenodd; clip-rule:evenodd"
viewBox="0 0 36470 14250"
 xmlns:xlink="http://www.w3.org/1999/xlink">
 <defs>
  <style type="text/css">
   <![CDATA[
    .fil1 {fill:#BA0000;fill-rule:nonzero}
    .fil0 {fill:red;fill-rule:nonzero}
    .fil2 {fill:white;fill-rule:nonzero}
   ]]>
  </style>
 </defs>
 <g id="Layer_x0020_1">
  <metadata id="CorelCorpID_0Corel-Layer"/>
  <polygon class="fil0" points="1698,10066 0,10066 0,13054 1698,13054 "/>
  <path class="fil1" d="M1 13054l0 0c0,660 535,1196 1196,1196l501 0 0 -2393 -501 0c-661,0 -1196,536 -1196,1197z"/>
  <path class="fil0" d="M34733 10121l0 0c2315,-2316 2315,-6069 0,-8384l0 0c-1112,-1112 -2620,-1737 -4192,-1737l-29306 0c-682,0 -1234,553 -1234,1235l0 10622 30540 0c1572,0 3080,-624 4192,-1736z"/>
  <path class="fil2" d="M7763 4200c674,0 757,0 937,70 153,62 340,166 340,659 0,522 -319,675 -409,709 -132,56 -333,56 -868,56l0 -1494zm-1124 4256l1124 0 0 -1907 611 -21c396,-14 798,-35 1166,-257 229,-139 667,-515 667,-1307 0,-507 -146,-917 -465,-1201 -271,-243 -674,-403 -1423,-403l-1680 0 0 5096zm5671 -4305c625,0 764,0 937,63 222,83 334,257 334,611 0,278 -28,555 -382,680 -160,56 -257,56 -889,56l0 -1410zm0 2222l375 0 965 2083 1215 0 -1111 -2264c715,-215 972,-708 972,-1353 0,-1368 -1048,-1479 -1874,-1479l-1646 0 0 5096 1104 0 0 -2083zm4353 -1388c0,-202 0,-785 618,-785 590,0 590,430 590,785l0 1770c0,354 0,916 -604,916 -500,0 -604,-382 -604,-916l0 -1770zm-1139 1541c0,222 21,666 132,1027 257,861 1076,1041 1576,1041 326,0 937,-48 1361,-506 319,-347 437,-806 437,-1521l0 -1235c0,-820 -160,-1271 -444,-1576 -340,-368 -819,-493 -1340,-493 -479,0 -958,132 -1277,486 -354,389 -445,888 -445,1409l0 1368zm4749 1930l965 0 0 -2708c0,-215 -42,-1249 -49,-1485l35 0 1083 4193 770 0 1055 -4193 28 0c-21,486 -48,1089 -48,1450l0 2743 978 0 0 -5096 -1506 0 -597 2104c-125,451 -201,770 -278,1194l-34 0c-21,-91 -125,-535 -153,-639 -56,-229 -83,-306 -146,-535l-604 -2124 -1499 0 0 5096zm7191 -3471c0,-202 0,-785 618,-785 590,0 590,430 590,785l0 1770c0,354 0,916 -604,916 -499,0 -604,-382 -604,-916l0 -1770zm-1138 1541c0,222 21,666 132,1027 257,861 1076,1041 1576,1041 326,0 937,-48 1360,-506 320,-347 438,-806 438,-1521l0 -1235c0,-820 -160,-1271 -445,-1576 -340,-368 -819,-493 -1339,-493 -479,0 -958,132 -1278,486 -354,389 -444,888 -444,1409l0 1368z"/>
 </g>
</svg>
